<?xml version="1.0" standalone="no"?><!DOCTYPE svg PUBLIC "-//W3C//DTD SVG 1.1//EN" "http://www.w3.org/Graphics/SVG/1.1/DTD/svg11.dtd"><svg t="1588068400450" class="icon" viewBox="0 0 1024 1024" version="1.1" xmlns="http://www.w3.org/2000/svg" p-id="3151" xmlns:xlink="http://www.w3.org/1999/xlink" width="200" height="200"><defs><style type="text/css"></style></defs><path d="M512.001673 545.443974c151.530248-0.008366 206.049882-151.729359 220.325647-276.357856C749.909333 115.551373 677.310745 0 512.001673 0c-165.282301 0-237.921046 115.543007-220.325647 269.084444C305.965176 393.711268 360.468078 545.455686 512.001673 545.443974z" p-id="3152"></path><path d="M921.90285 906.721882c-1.656471-48.362248-7.323608-96.943686-15.763242-144.552993-10.224941-57.673621-23.239111-142.225569-73.592471-179.810719-29.120418-21.731556-66.829386-28.861072-100.166275-41.965595-16.225046-6.374902-30.760157-12.706301-44.401778-19.912784-46.04319 50.490562-106.081046 76.903739-175.99749 76.907085-69.896366 0-129.927529-26.413176-175.965699-76.907085-13.641621 7.208157-28.176732 13.541229-44.401778 19.912784-33.336889 13.104523-71.045856 20.232366-100.162928 41.965595-50.356706 37.58515-63.369203 122.137098-73.592471 179.810719-8.441307 47.609307-14.110118 96.190745-15.764915 144.552993-1.281673 37.457987 17.213908 42.708497 48.55132 54.017673 39.241621 14.151948 79.754876 24.657987 120.53919 33.269961 78.769359 16.633307 159.96319 29.418248 240.808993 29.990484 80.845804-0.573908 162.039634-13.357176 240.808993-29.990484 40.784314-8.608627 81.300915-19.114667 120.53919-33.269961C904.690614 949.433725 923.184523 944.183216 921.90285 906.721882z" p-id="3153"></path></svg>